<?xml version="1.0" standalone="no"?>
<!DOCTYPE svg PUBLIC "-//W3C//DTD SVG 20010904//EN"
 "http://www.w3.org/TR/2001/REC-SVG-20010904/DTD/svg10.dtd">
<svg version="1.0" xmlns="http://www.w3.org/2000/svg"
 width="1066.000000pt" height="550.000000pt" viewBox="0 0 1066.000000 550.000000"
 preserveAspectRatio="xMidYMid meet">

<g transform="translate(0.000000,550.000000) scale(0.100000,-0.100000)"
fill="#000000" stroke="none">
<path d="M6315 5144 c-530 -71 -1009 -308 -1386 -684 -291 -290 -504 -646
-613 -1028 -58 -202 -66 -248 -86 -512 -31 -420 54 -846 249 -1245 136 -277
280 -475 510 -699 l123 -119 51 51 c76 76 97 92 145 114 23 10 42 23 42 28 0
5 -18 22 -40 36 -41 28 -58 57 -43 77 42 55 123 408 148 640 20 192 19 249 -4
365 -22 105 -30 229 -17 250 4 7 23 19 42 27 40 16 44 43 17 103 -9 20 -15 40
-15 44 1 4 -7 12 -18 18 -11 6 -27 24 -35 40 -15 29 -15 30 7 30 17 0 31 -13
53 -47 38 -62 51 -96 85 -223 31 -116 64 -200 78 -200 5 0 12 19 16 42 5 33 9
39 17 28 8 -11 9 -3 5 30 -4 41 -3 43 10 26 8 -11 14 -27 14 -35 0 -9 7 -36
15 -60 15 -41 14 -45 -5 -78 -11 -19 -20 -43 -20 -54 0 -21 25 -26 34 -6 3 6
3 -1 0 -18 -14 -73 -14 -110 1 -130 13 -16 19 -18 35 -7 25 15 25 9 0 -63 -11
-32 -20 -77 -20 -99 0 -60 -10 -86 -31 -86 -10 0 -25 -10 -33 -23 -16 -24 -13
-48 18 -160 9 -32 16 -69 16 -83 0 -15 12 -35 32 -53 l33 -29 2 -109 c1 -59
-1 -142 -5 -184 l-8 -76 59 -11 c33 -6 67 -17 76 -25 9 -7 36 -19 60 -26 24
-7 51 -19 58 -27 8 -8 24 -14 35 -14 12 0 45 -16 74 -36 78 -54 124 -55 243
-6 94 39 94 39 145 24 83 -23 122 -78 81 -112 -16 -14 -71 -3 -122 22 -13 6
-26 9 -29 5 -14 -14 7 -33 55 -51 63 -22 89 -55 73 -91 -7 -14 -18 -25 -25
-25 -19 0 -110 31 -124 42 -13 10 -33 3 -33 -12 0 -5 27 -24 60 -42 68 -38 77
-51 55 -84 -16 -25 -53 -32 -71 -14 -17 17 -135 42 -213 45 -156 6 -226 24
-261 67 -8 10 -24 20 -35 22 -11 2 -42 14 -68 25 -27 12 -61 21 -75 21 -27 0
-86 18 -110 34 -8 4 -68 10 -135 13 -67 3 -126 9 -132 13 -14 10 -77 -8 -70
-20 7 -12 85 -33 92 -26 3 3 14 1 24 -4 9 -6 34 -12 55 -15 56 -7 67 -25 16
-25 -52 0 -54 -14 -4 -38 29 -14 49 -16 92 -11 30 4 80 7 111 8 64 1 69 -4 69
-74 0 -23 6 -47 13 -53 16 -13 215 -77 302 -97 168 -38 224 -45 383 -45 l163
0 -1 88 c-2 95 7 461 19 772 3 107 8 533 10 947 l2 752 -41 12 c-23 7 -54 25
-69 39 -68 68 -170 145 -220 168 -72 33 -231 45 -231 18 0 -9 16 -23 38 -33
121 -52 142 -73 142 -139 0 -56 -7 -72 -40 -89 -31 -16 -159 -192 -202 -277
-16 -32 -38 -68 -49 -79 -19 -19 -19 -20 20 -106 59 -130 59 -129 12 -225 -22
-46 -58 -133 -78 -193 -47 -135 -51 -142 -87 -151 -25 -6 -28 -4 -23 10 8 20
-2 48 -14 40 -5 -3 -9 6 -9 20 0 19 5 26 20 26 11 0 20 -5 20 -12 0 -6 2 -9 5
-6 9 9 -7 38 -21 38 -8 0 -14 5 -14 10 0 6 7 10 15 10 19 0 19 5 -1 35 -10 16
-14 34 -10 51 7 28 -10 94 -24 94 -12 0 -21 48 -22 109 0 28 -4 54 -9 57 -5 3
-9 19 -9 35 0 56 -65 160 -110 174 -11 3 -20 11 -20 16 0 5 -11 9 -24 9 -32 0
-102 54 -143 110 -18 25 -42 56 -53 69 -11 13 -20 32 -20 41 0 9 -16 33 -35
54 -19 21 -35 43 -35 48 0 6 -8 7 -17 4 -15 -5 -15 -4 1 9 11 8 27 15 37 15 9
0 27 9 40 20 26 21 21 23 -36 20 -40 -2 -85 16 -85 33 0 29 34 44 105 46 39 1
74 7 80 12 5 6 2 9 -10 9 -11 0 -50 7 -87 16 -64 16 -68 18 -68 46 0 43 32 54
119 40 93 -16 99 -15 106 9 5 16 10 18 21 8 21 -17 17 -1 -10 45 -33 55 -109
119 -125 103 -6 -6 -11 -18 -11 -26 0 -13 -2 -13 -16 1 -24 23 -11 44 40 68
43 21 69 60 40 60 -8 0 -14 5 -14 10 0 6 5 10 11 10 5 0 8 4 5 8 -3 5 19 15
50 22 30 7 57 17 60 21 4 7 -34 29 -123 73 -27 13 -29 22 -7 30 8 3 13 2 10
-3 -8 -12 41 -23 65 -16 11 4 36 -4 61 -18 24 -14 60 -30 81 -37 20 -6 37 -16
37 -21 0 -13 44 -11 57 2 19 19 -5 68 -35 75 -49 10 -80 25 -99 47 -24 29 -47
71 -34 63 6 -4 18 -3 27 2 13 7 10 13 -20 35 -19 15 -50 29 -68 31 -20 2 -40
14 -53 30 -20 26 -21 26 -40 7 -26 -26 -75 -38 -76 -20 0 8 -2 22 -4 33 -2 10
5 33 16 52 10 19 16 34 12 34 -3 0 6 12 20 26 20 20 33 25 52 20 18 -5 25 -2
25 9 0 21 27 19 40 -4 13 -25 5 -46 -23 -59 -17 -8 -18 -11 -5 -11 17 -1 102
67 126 101 7 10 20 18 29 18 12 0 13 3 3 15 -6 8 -15 14 -18 13 -25 -3 -32 6
-32 37 0 43 -21 86 -54 112 -23 19 -23 20 -5 31 10 7 33 12 50 12 31 0 32 0
14 20 -17 19 -17 21 23 62 46 47 39 46 227 35 135 -8 221 -26 299 -62 56 -27
58 -28 51 -59 -4 -17 -8 -60 -9 -96 -1 -58 1 -66 21 -75 12 -5 27 -20 32 -33
6 -13 15 -21 20 -18 13 9 34 -45 21 -58 -12 -12 -13 -53 -1 -60 5 -3 12 2 16
12 6 16 7 16 16 -1 10 -18 3 -41 -10 -33 -4 3 -13 1 -21 -5 -10 -6 -11 -9 -2
-9 6 0 12 -7 12 -15 0 -7 8 -19 18 -24 31 -18 2 -12 -37 9 -38 19 -39 19 -59
0 -25 -24 -36 -68 -23 -101 l9 -24 11 28 c17 45 48 52 122 29 65 -20 89 -16
89 14 0 23 37 35 133 42 l92 7 3 683 2 682 -107 -1 c-60 -1 -153 -7 -208 -15z
m-945 -984 c0 -12 -28 -25 -36 -17 -9 9 6 27 22 27 8 0 14 -5 14 -10z m168
-173 c3 -12 -3 -17 -21 -17 -31 0 -40 10 -25 27 15 18 42 12 46 -10z m702
-197 c0 -5 -2 -10 -4 -10 -3 0 -8 5 -11 10 -3 6 -1 10 4 10 6 0 11 -4 11 -10z
m-790 -150 c0 -5 -5 -10 -11 -10 -5 0 -7 5 -4 10 3 6 8 10 11 10 2 0 4 -4 4
-10z m1127 -2672 c20 -26 22 -48 5 -68 l-17 -21 -42 21 c-24 11 -43 24 -43 28
0 14 24 32 42 32 10 0 18 5 18 10 0 14 26 12 37 -2z"/>
<path d="M7797 4574 c-3 -3 -25 -8 -49 -10 -56 -6 -150 -25 -163 -32 -10 -7
-17 -8 -51 -10 -13 -1 -29 -17 -43 -42 -14 -25 -29 -39 -39 -38 -9 2 -21 -8
-28 -21 -6 -12 -30 -42 -52 -65 -40 -40 -92 -135 -92 -168 0 -9 -4 -20 -10
-23 -5 -3 -9 -23 -8 -44 0 -21 -2 -42 -5 -48 -12 -18 13 -146 44 -222 41 -104
46 -108 108 -87 27 9 56 14 63 11 8 -3 26 -33 42 -65 26 -59 46 -77 46 -42 0
9 -6 25 -14 34 -8 11 -11 40 -9 85 2 53 -1 71 -13 80 -14 10 -14 14 -3 30 29
40 109 105 123 100 7 -3 28 -31 46 -62 41 -71 93 -107 163 -113 42 -3 60 1 90
18 47 28 59 54 66 144 3 38 11 71 16 73 6 2 19 -13 30 -33 10 -20 43 -57 72
-84 79 -72 149 -76 215 -13 29 27 43 77 52 181 l6 62 -34 0 c-18 0 -50 7 -71
16 -21 8 -48 13 -60 10 -18 -5 -27 3 -52 42 -45 71 -46 72 -34 86 6 7 9 39 7
71 -3 55 -6 62 -51 107 -26 26 -52 48 -57 48 -5 0 -17 7 -25 16 -15 14 -49 15
-148 4 -5 -1 -24 1 -41 4 -18 3 -34 2 -37 0z m253 -216 c57 -33 94 -73 114
-121 15 -37 15 -38 -10 -47 -14 -6 -29 -10 -34 -10 -5 0 -16 -13 -24 -29 -11
-20 -25 -31 -51 -35 -20 -4 -38 -13 -41 -21 -4 -10 -18 -7 -59 16 -29 16 -66
29 -82 29 -49 0 -128 -28 -153 -55 -12 -13 -38 -29 -57 -36 -19 -6 -30 -15
-27 -21 4 -7 2 -8 -5 -4 -9 6 -117 -83 -142 -118 -13 -18 -29 6 -29 45 0 21
-5 39 -11 39 -6 0 -9 6 -6 13 2 6 10 11 17 9 8 -2 10 3 6 13 -3 9 1 33 10 54
8 22 14 45 13 52 -4 18 19 117 33 146 7 13 37 33 77 50 110 47 176 60 301 59
106 -1 119 -3 160 -28z m268 -221 l23 -24 -38 -46 c-21 -25 -41 -46 -44 -46
-4 -1 -11 25 -17 57 -6 31 -14 66 -18 76 -7 17 -4 19 31 13 22 -4 50 -17 63
-30z m-372 -72 c22 -22 24 -31 21 -100 -4 -87 -19 -109 -79 -126 -35 -9 -46
-7 -86 13 -68 34 -72 48 -28 91 41 41 48 44 66 21 8 -8 25 -14 39 -12 22 3 26
9 29 39 4 43 -12 53 -65 43 -41 -8 -121 -82 -105 -99 4 -4 0 -6 -8 -3 -20 6
-37 74 -23 96 21 35 81 58 149 60 57 0 70 -3 90 -23z m414 -31 c0 -48 -25 -99
-56 -113 -59 -26 -147 3 -160 53 -3 13 -12 27 -20 30 -17 6 -7 36 12 36 7 0
18 -9 24 -20 6 -11 15 -18 20 -15 13 8 40 -6 40 -21 0 -8 4 -14 9 -14 14 0
111 79 111 90 0 6 5 10 10 10 6 0 10 -16 10 -36z"/>
<path d="M5758 4093 c-10 -2 -18 -10 -18 -16 0 -7 -16 -23 -35 -36 -19 -13
-32 -28 -29 -33 4 -6 9 -6 13 -1 26 36 135 43 211 13 28 -11 50 -15 50 -9 0
22 -50 58 -101 73 -54 16 -61 17 -91 9z"/>
<path d="M5737 3994 c-28 -15 -28 -16 -12 -41 11 -16 15 -36 11 -54 -8 -39 17
-39 52 1 15 17 31 30 38 30 6 0 25 -16 43 -35 17 -19 36 -35 41 -35 14 0 24
21 13 29 -5 3 -19 20 -31 38 -19 27 -102 84 -121 83 -3 -1 -19 -8 -34 -16z"/>
<path d="M5642 3960 c0 -14 2 -19 5 -12 2 6 2 18 0 25 -3 6 -5 1 -5 -13z"/>
<path d="M6010 3930 c0 -5 5 -10 10 -10 6 0 10 5 10 10 0 6 -4 10 -10 10 -5 0
-10 -4 -10 -10z"/>
<path d="M8173 3838 c-13 -12 -37 -23 -58 -24 -20 -2 -50 -14 -68 -26 l-32
-23 28 -3 c21 -3 27 -8 23 -19 -10 -25 2 -31 48 -22 44 8 116 -3 86 -14 -180
-64 -250 -85 -255 -76 -4 5 -11 7 -16 4 -5 -4 -9 1 -9 9 0 29 -17 17 -24 -16
-5 -25 -2 -36 11 -46 11 -8 19 -9 21 -2 6 18 194 94 206 83 3 -3 19 0 36 6 25
8 38 7 61 -4 16 -9 29 -20 29 -25 0 -7 -92 -40 -117 -40 -4 0 -19 -9 -32 -19
l-24 -19 29 -6 c42 -9 82 -9 140 -1 45 7 52 5 56 -11 7 -26 -1 -44 -18 -44 -8
0 -14 -6 -14 -13 0 -7 -13 -24 -30 -39 l-30 -26 -1 26 c-2 24 -2 24 -6 5 -3
-14 -14 -25 -28 -29 -16 -4 -22 -11 -18 -22 5 -12 2 -14 -13 -8 -44 17 -71 18
-87 2 -15 -15 -19 -15 -52 6 -19 13 -35 29 -35 36 0 6 -7 12 -15 12 -8 0 -15
-7 -15 -15 0 -8 5 -15 10 -15 6 0 10 -16 10 -35 0 -42 -16 -46 -32 -7 -9 21
-12 23 -15 10 -6 -23 -19 -23 -51 3 -16 12 -28 16 -30 10 -6 -17 -29 -13 -44
7 -13 17 -39 23 -48 10 -7 -8 -33 11 -49 37 -11 18 -12 18 -7 1 11 -33 -18 -1
-40 44 -10 22 -22 40 -26 40 -5 0 -8 6 -8 13 0 7 -9 18 -19 24 -13 8 -18 20
-15 35 2 13 2 18 -2 11 -3 -7 -13 -9 -22 -6 -16 6 -16 5 -1 -13 14 -16 49
-106 49 -123 0 -3 -23 -7 -51 -8 -28 -1 -53 -4 -56 -7 -3 -3 16 -31 42 -62
l47 -58 -4 35 c-2 23 3 40 15 52 18 18 20 17 60 -30 96 -110 174 -157 279
-169 88 -9 114 -24 121 -71 4 -25 2 -45 -8 -60 -19 -29 -19 -68 1 -87 21 -22
25 -21 63 18 45 46 69 52 82 18 6 -14 7 -44 3 -65 -8 -50 -38 -63 -176 -78
-142 -15 -293 -5 -382 26 -106 36 -156 46 -156 30 0 -9 -11 -12 -38 -8 -28 4
-54 -3 -107 -27 -39 -18 -99 -43 -135 -56 -39 -13 -64 -27 -62 -35 2 -10 0
-10 -12 1 -12 9 -16 9 -16 1 0 -7 -5 -9 -10 -6 -6 3 -13 0 -16 -9 -3 -9 -12
-12 -22 -9 -13 6 -13 8 4 15 12 5 6 6 -16 2 -42 -7 -95 -53 -80 -68 7 -7 21
-5 43 6 39 20 86 28 93 17 9 -16 26 -9 20 7 -5 14 0 15 39 10 26 -4 45 -3 45
2 0 17 59 20 65 4 4 -11 17 -13 54 -9 29 3 65 0 88 -8 41 -14 66 0 38 21 -8 6
-15 16 -15 23 0 6 -4 11 -10 11 -16 0 -11 20 6 27 10 4 20 0 26 -10 11 -21 38
-22 38 -2 0 19 14 19 29 2 8 -10 7 -17 -2 -26 -9 -10 -2 -12 38 -9 38 2 49 0
47 -11 -2 -10 4 -12 24 -7 23 6 26 5 16 -7 -10 -11 -9 -17 3 -27 13 -11 15 -8
15 14 0 14 5 26 10 26 6 0 10 -11 10 -25 0 -14 5 -25 11 -25 12 0 72 -60 66
-67 -2 -2 -16 1 -31 6 -22 9 -26 8 -26 -7 0 -9 4 -23 9 -31 8 -12 14 -12 43 1
18 9 45 15 60 13 16 -2 30 1 34 6 7 12 44 12 44 -1 0 -5 -11 -10 -24 -10 -13
0 -29 -6 -36 -14 -6 -8 -17 -13 -25 -10 -7 3 -16 1 -20 -5 -3 -7 2 -11 14 -11
22 0 34 -15 36 -42 1 -14 -4 -16 -22 -12 -17 5 -23 2 -23 -10 0 -9 5 -16 10
-16 6 0 10 -4 10 -10 0 -16 -27 -12 -34 5 -3 10 -16 14 -36 12 -40 -5 -46 -13
-21 -27 12 -6 19 -15 16 -21 -4 -5 1 -12 9 -15 22 -9 20 -24 -4 -24 -12 0 -17
-5 -14 -13 3 -8 -3 -20 -12 -28 -14 -11 -16 -11 -10 0 9 14 -9 31 -34 31 -13
0 -13 -1 0 -10 13 -9 13 -11 1 -19 -12 -8 -12 -12 -2 -25 17 -21 7 -20 -24 0
-22 15 -25 15 -25 1 0 -11 14 -18 45 -23 46 -6 59 -29 17 -29 -24 -1 -96 -55
-72 -55 8 0 27 6 42 14 29 15 60 15 65 0 2 -6 -6 -20 -18 -33 -19 -21 -23 -21
-31 -7 -10 18 -43 22 -53 6 -3 -5 -24 -10 -46 -10 -31 0 -39 -4 -39 -19 0 -17
6 -18 65 -13 44 3 65 1 65 -7 0 -6 -4 -11 -10 -11 -5 0 -10 -7 -10 -16 0 -14
2 -15 17 -3 9 8 24 13 33 11 9 -1 23 4 30 13 11 13 8 14 -19 9 -19 -4 -31 -2
-31 4 0 15 38 35 55 28 7 -2 16 2 19 11 5 12 9 13 21 3 8 -6 19 -9 26 -5 6 4
14 3 18 -3 3 -5 24 -13 46 -16 22 -4 44 -11 50 -17 7 -7 -4 -8 -32 -3 -41 6
-43 6 -43 -20 0 -37 3 -41 23 -38 13 1 17 -3 15 -15 -2 -11 -11 -17 -22 -15
-28 5 -46 -6 -40 -23 5 -13 16 -15 53 -10 39 5 44 4 29 -7 -9 -8 -18 -27 -20
-43 -3 -26 0 -30 20 -28 28 3 30 -23 2 -30 -11 -3 -20 -1 -20 5 0 9 -14 8 -93
-5 -19 -4 -52 -45 -43 -54 3 -3 37 1 75 9 59 13 71 13 75 1 7 -17 -34 -60 -43
-45 -9 14 -50 9 -61 -8 -8 -13 -10 -12 -10 3 0 15 -3 16 -21 7 -11 -7 -27 -9
-35 -6 -9 3 -14 -1 -14 -12 0 -29 -19 -41 -50 -32 -22 6 -33 4 -49 -11 -18
-17 -19 -22 -8 -33 7 -8 22 -16 33 -18 10 -2 18 -7 17 -11 -2 -4 -3 -20 -3
-36 0 -25 -3 -28 -25 -23 -14 2 -25 8 -25 13 0 5 -7 9 -15 9 -18 0 -20 16 -2
23 7 3 4 6 -7 6 -13 1 -16 6 -11 19 12 30 10 37 -7 36 -10 -1 -18 2 -18 7 0 5
5 9 10 9 6 0 10 5 10 10 0 6 -7 10 -15 10 -8 0 -15 5 -15 11 0 7 9 9 21 6 14
-4 23 1 31 18 6 14 16 21 24 18 23 -9 64 6 64 23 0 11 -5 14 -16 10 -46 -17
-66 -18 -84 -1 -23 21 -39 13 -21 -9 10 -12 8 -16 -9 -21 -28 -9 -34 -2 -19
23 16 26 -8 54 -40 45 -14 -4 -30 2 -44 14 -12 11 -29 23 -37 26 -8 3 9 3 38
0 37 -4 52 -2 52 6 0 7 -4 9 -10 6 -5 -3 -10 1 -10 9 0 10 -9 16 -23 16 -31 0
-38 9 -27 31 8 14 6 19 -9 24 -12 4 -18 12 -14 21 3 7 -1 14 -7 14 -9 0 -8 6
3 18 19 21 23 67 7 77 -6 4 -10 14 -9 23 1 10 0 20 -1 25 -1 4 -3 10 -4 15 -1
4 -7 17 -14 29 -6 12 -9 28 -6 37 3 8 -3 19 -15 25 -28 15 -37 -3 -17 -34 9
-14 12 -25 7 -25 -6 0 -7 -10 -4 -22 2 -13 5 -33 4 -45 0 -13 8 -27 19 -33 11
-6 18 -15 15 -21 -4 -5 -11 -7 -16 -4 -13 9 -11 -49 3 -63 9 -9 7 -16 -7 -32
-18 -19 -18 -20 3 -20 29 0 28 -9 -7 -48 -30 -32 -30 -36 1 -33 11 2 16 -3 13
-11 -7 -17 -42 -21 -52 -5 -4 6 -10 77 -14 157 -5 103 -11 154 -22 175 -14 26
-15 31 -2 45 20 22 19 30 -5 30 -11 0 -20 -7 -20 -15 0 -7 -8 -19 -17 -24 -16
-9 -16 -12 -3 -20 11 -8 14 -31 12 -107 -1 -90 -13 -131 -32 -119 -5 3 -6 15
-2 27 4 16 2 20 -10 15 -12 -4 -18 3 -23 29 -3 19 -10 32 -15 29 -5 -3 -11 -1
-15 5 -3 6 1 13 10 16 11 5 13 10 5 19 -6 7 -8 19 -5 27 7 18 -20 42 -36 32
-9 -5 -7 -11 6 -21 11 -7 15 -13 11 -13 -5 0 -3 -7 4 -15 7 -9 8 -15 2 -15 -5
0 -13 7 -16 16 -3 8 -10 13 -16 9 -5 -3 -16 9 -23 27 -17 40 -129 153 -168
170 -16 7 -29 16 -29 20 0 5 -3 7 -7 6 -22 -6 -87 48 -77 63 2 4 -3 9 -11 13
-8 3 -15 15 -15 27 0 37 -10 15 -13 -30 -3 -38 -1 -44 22 -54 14 -6 35 -19 46
-28 11 -9 39 -28 62 -41 24 -12 43 -27 42 -31 0 -4 8 -15 17 -25 16 -16 16
-17 1 -20 -16 -3 -19 -34 -4 -48 4 -4 2 -13 -4 -20 -6 -7 -7 -19 -3 -26 5 -7
7 -23 5 -35 -1 -16 3 -23 13 -23 9 0 16 -8 16 -20 0 -25 -11 -25 -38 0 -12 11
-30 20 -41 20 -11 0 -23 5 -26 10 -9 15 -25 12 -19 -4 3 -7 16 -18 30 -24 13
-7 24 -18 24 -27 0 -8 4 -15 8 -15 5 0 22 -11 38 -25 16 -14 32 -25 36 -25 4
0 27 -19 50 -43 24 -24 70 -63 102 -88 41 -30 54 -45 43 -47 -9 -2 -17 -10
-17 -17 0 -9 -6 -12 -17 -8 -11 4 -13 8 -5 11 7 2 10 8 7 12 -3 5 -12 7 -19 4
-7 -3 -16 2 -19 10 -4 9 -12 16 -20 16 -7 0 -29 19 -48 41 -33 40 -48 56 -170
168 -75 69 -76 47 -3 -47 30 -40 52 -76 49 -82 -3 -6 2 -13 12 -17 24 -8 162
-154 163 -171 0 -7 7 -15 15 -18 8 -4 15 -12 15 -19 0 -8 10 -17 21 -20 15 -5
18 -9 9 -15 -10 -6 -9 -10 2 -16 8 -5 25 -30 37 -56 19 -39 28 -48 49 -48 l25
0 -24 -27 c-13 -14 -19 -23 -13 -20 32 18 41 -53 10 -76 -7 -6 -4 -7 7 -3 10
3 26 6 35 7 14 0 13 2 -3 9 -16 7 -17 9 -3 9 27 1 31 -18 6 -28 -22 -9 -22 -9
-3 -16 42 -15 85 -40 84 -50 -3 -35 -22 -59 -86 -106 -148 -112 -239 -210
-291 -315 -25 -50 -48 -134 -37 -134 2 0 17 18 33 41 17 22 48 59 69 82 21 23
49 64 63 91 14 26 58 82 98 123 70 71 76 74 125 78 29 2 42 2 30 -1 -25 -6
-107 -99 -99 -112 3 -4 -6 -21 -20 -37 -13 -15 -24 -31 -24 -35 0 -17 30 -17
62 -1 29 16 35 16 46 4 15 -16 35 -5 53 29 16 30 0 42 -26 18 -21 -20 -55 -19
-55 2 0 18 77 88 97 88 11 0 26 11 33 24 15 30 38 40 55 26 9 -7 21 -7 39 0
36 13 253 -9 281 -30 20 -14 64 -20 87 -11 13 5 40 31 62 59 l38 49 91 7 c76
5 93 3 109 -11 17 -15 18 -15 18 0 0 22 19 22 40 0 17 -17 15 -19 -24 -38 -33
-16 -42 -26 -44 -52 -2 -21 -9 -33 -24 -36 -13 -4 -19 -11 -15 -20 7 -19 -28
-53 -38 -37 -4 7 -19 -3 -41 -29 -28 -33 -39 -39 -64 -36 -17 2 -30 0 -30 -5
0 -16 -20 -11 -26 5 -4 9 4 25 20 40 24 22 26 22 26 5 0 -37 18 -29 24 10 4
26 12 40 21 40 20 0 19 10 -2 27 -13 10 -15 16 -5 19 6 3 12 14 12 23 0 10 14
30 32 44 17 15 30 29 27 31 -2 2 -22 1 -43 -3 -33 -5 -48 -16 -84 -61 -25 -30
-51 -56 -59 -58 -7 -2 -13 -10 -13 -18 0 -8 -5 -14 -10 -14 -11 0 -35 -24
-175 -170 -38 -40 -84 -82 -101 -94 -101 -70 -143 -94 -179 -106 -22 -7 -46
-17 -54 -23 -10 -8 -16 -7 -25 5 -11 15 -13 13 -23 -11 -10 -28 -53 -50 -53
-28 0 18 57 59 155 112 50 26 101 55 114 63 13 9 32 17 43 17 11 1 23 6 26 12
4 6 16 13 27 17 24 8 75 51 75 64 0 5 9 17 20 27 11 10 20 29 20 43 0 24 -1
24 -19 8 -10 -9 -25 -14 -35 -10 -9 3 -16 1 -16 -5 0 -6 -6 -11 -13 -11 -7 0
-18 -9 -25 -20 -10 -17 -15 -18 -38 -8 -21 10 -28 10 -38 -3 -14 -19 -85 -40
-116 -34 -14 3 -31 -2 -42 -12 -12 -10 -18 -12 -18 -4 0 7 -16 0 -35 -15 -19
-14 -35 -30 -35 -35 0 -15 -150 -152 -194 -177 -26 -16 -58 -24 -88 -25 -51
-1 -56 -5 -35 -27 10 -12 9 -12 -5 -1 -15 11 -19 11 -25 -5 -3 -11 -11 -22
-17 -26 -8 -5 -4 -20 10 -46 l20 -38 -28 -53 c-17 -31 -29 -70 -30 -97 -2 -31
-7 -46 -19 -49 -19 -6 -19 -27 3 -76 25 -56 51 -69 138 -69 85 0 277 47 439
106 263 97 614 298 717 410 17 19 38 34 47 34 32 0 120 41 158 74 21 18 64 46
96 62 55 28 65 29 213 32 137 3 157 6 173 23 14 14 14 19 4 19 -10 0 -16 19
-20 68 -6 85 -53 203 -85 217 -35 15 -22 38 30 55 29 9 49 22 52 34 2 10 9 15
15 11 7 -3 11 2 11 14 0 14 5 19 16 14 11 -4 12 -9 5 -16 -17 -17 -13 -26 8
-20 13 3 20 17 24 45 3 22 11 46 18 52 9 8 10 4 6 -20 -3 -17 -2 -35 3 -40 6
-6 6 -24 -1 -48 -7 -25 -7 -47 0 -66 7 -20 6 -30 -2 -33 -14 -4 60 -152 102
-202 42 -50 62 -87 56 -104 -4 -14 0 -17 17 -16 18 1 24 8 26 33 4 36 8 37 76
17 71 -22 116 -19 157 9 74 50 121 164 180 436 29 135 36 399 12 500 -11 45
-14 89 -10 147 7 91 -7 160 -48 250 -20 45 -24 72 -29 219 -4 92 -9 171 -12
175 -2 5 4 72 16 149 24 171 24 172 1 135 -12 -18 -23 -65 -30 -119 -7 -61
-18 -102 -36 -133 -14 -25 -23 -49 -20 -53 11 -17 -90 -29 -160 -19 -37 5 -69
8 -71 6 -2 -1 6 -21 16 -44 10 -23 16 -44 12 -47 -28 -29 13 -71 58 -59 22 6
22 5 6 -26 -9 -17 -21 -31 -26 -31 -6 0 -10 -13 -10 -29 0 -20 6 -30 19 -34
28 -7 17 -57 -14 -57 -18 0 -21 -4 -17 -25 4 -23 -4 -30 -30 -26 -5 0 -8 -6
-8 -15 0 -31 -25 -7 -28 27 -4 48 -40 197 -58 239 -28 64 -35 76 -75 122 -30
36 -66 59 -162 107 -68 34 -128 61 -133 61 -6 0 -24 16 -41 35 -35 39 -58 43
-109 19 -29 -14 -41 -15 -79 -4 -25 7 -50 19 -56 26 -6 8 -20 14 -30 14 -22 0
-88 30 -108 48 -7 7 -20 11 -27 8 -8 -3 -20 -9 -28 -12 -24 -9 -44 36 -56 125
-10 76 -10 85 5 94 10 5 30 21 46 36 57 51 87 267 55 390 -22 81 -28 75 -20
-20 4 -60 3 -88 -5 -93 -8 -5 -11 11 -11 52 0 69 -22 106 -77 128 -18 8 -33
19 -33 24 0 16 -14 12 -37 -12z m-53 -448 c0 -5 -4 -10 -10 -10 -5 0 -10 5
-10 10 0 6 5 10 10 10 6 0 10 -4 10 -10z m-595 -450 c3 -5 1 -10 -4 -10 -6 0
-11 5 -11 10 0 6 2 10 4 10 3 0 8 -4 11 -10z m-96 -26 c-6 -7 -17 -10 -25 -7
-23 8 -16 21 11 21 20 0 23 -3 14 -14z m71 -34 c0 -5 -2 -10 -4 -10 -3 0 -8 5
-11 10 -3 6 -1 10 4 10 6 0 11 -4 11 -10z m-87 -7 c4 -3 -1 -12 -11 -19 -16
-12 -15 -13 6 -14 12 0 22 -4 22 -10 0 -17 -26 -11 -44 9 -10 11 -15 25 -11
30 7 12 28 14 38 4z m361 -89 c16 -41 -12 -49 -31 -9 -10 22 -9 25 7 25 10 0
21 -7 24 -16z m1091 -14 c3 -5 1 -10 -4 -10 -6 0 -11 5 -11 10 0 6 2 10 4 10
3 0 8 -4 11 -10z m-109 -35 c20 -19 4 -20 -22 0 -12 9 -14 14 -6 15 7 0 20 -7
28 -15z m113 -22 c2 -2 -3 -3 -11 -3 -9 0 -19 7 -22 16 -6 15 -4 15 11 3 10
-7 20 -15 22 -16z m-932 11 c-3 -3 -12 -4 -19 -1 -8 3 -5 6 6 6 11 1 17 -2 13
-5z m-77 -14 c0 -13 -11 -13 -30 0 -12 8 -11 10 8 10 12 0 22 -4 22 -10z
m1197 -12 c-3 -8 -6 -5 -6 6 -1 11 2 17 5 13 3 -3 4 -12 1 -19z m-262 2 c8
-13 -5 -13 -25 0 -13 8 -13 10 2 10 9 0 20 -4 23 -10z m55 -31 c-13 -23 -40
-25 -40 -3 0 8 4 13 9 10 5 -3 12 1 15 10 3 8 10 12 16 9 7 -4 7 -13 0 -26z
m-130 -14 c-7 -8 -17 -12 -22 -9 -6 4 -5 10 3 15 22 14 33 10 19 -6z m240 5
c0 -5 -5 -10 -11 -10 -5 0 -7 5 -4 10 3 6 8 10 11 10 2 0 4 -4 4 -10z m-300
-40 c24 -24 40 -26 40 -4 0 13 3 14 15 4 8 -7 26 -10 40 -8 33 7 42 -8 15 -24
-11 -7 -20 -21 -20 -31 0 -12 -5 -17 -13 -14 -7 3 -18 -3 -24 -13 -15 -23 -50
-31 -64 -14 -6 8 -18 14 -25 14 -10 0 -12 9 -7 33 3 17 10 34 15 35 16 7 8 22
-13 22 -11 0 -17 5 -14 10 10 16 33 12 55 -10z m247 0 c-3 -11 -1 -20 4 -20 5
0 9 -4 9 -10 0 -5 -8 -10 -18 -10 -21 0 -25 27 -8 47 16 18 19 16 13 -7z
m-857 -9 c0 -5 -16 -9 -35 -9 -19 0 -32 4 -29 9 3 5 18 9 35 9 16 0 29 -4 29
-9z m-155 -11 c3 -5 1 -10 -4 -10 -6 0 -11 5 -11 10 0 6 2 10 4 10 3 0 8 -4
11 -10z m545 -30 c0 -9 -31 -23 -37 -17 -2 2 -1 11 3 20 5 15 34 13 34 -3z
m50 10 c0 -5 -5 -10 -11 -10 -5 0 -7 5 -4 10 3 6 8 10 11 10 2 0 4 -4 4 -10z
m560 -9 c0 -10 -7 -21 -15 -25 -8 -3 -12 -12 -9 -21 4 -10 0 -15 -10 -15 -20
0 -20 10 0 38 8 12 12 27 9 32 -3 6 1 10 9 10 9 0 16 -8 16 -19z m-120 -26
c-6 -14 -14 -36 -20 -50 -13 -34 -42 -23 -33 13 7 31 33 62 50 62 9 0 10 -6 3
-25z m-105 -55 c-3 -6 -10 -8 -15 -5 -13 8 -40 -6 -40 -21 0 -8 -7 -14 -15
-14 -18 0 -20 20 -2 20 7 1 4 7 -7 15 -18 13 -18 15 -1 32 13 13 20 14 23 5 4
-14 32 -17 32 -3 0 6 -5 13 -10 16 -6 4 -7 11 -4 17 4 6 15 -3 26 -21 11 -17
17 -35 13 -41z m-880 40 c-3 -5 -18 -10 -33 -9 -24 0 -25 1 -7 9 28 12 47 12
40 0z m215 -5 c-7 -9 -15 -13 -19 -10 -3 3 1 10 9 15 21 14 24 12 10 -5z m451
-16 c15 -10 32 -19 38 -19 14 0 14 -27 1 -35 -5 -3 -10 -1 -10 4 0 6 -8 11
-18 11 -20 0 -64 -29 -44 -30 6 0 12 -10 12 -22 0 -22 -1 -21 -25 7 -42 52
-46 97 -5 60 18 -16 20 -17 20 -1 0 9 -11 21 -25 26 -14 5 -25 15 -25 21 0 15
46 3 81 -22z m-378 14 c-7 -2 -19 -2 -25 0 -7 3 -2 5 12 5 14 0 19 -2 13 -5z
m-233 -17 c0 -3 -4 -8 -10 -11 -5 -3 -10 -1 -10 4 0 6 5 11 10 11 6 0 10 -2
10 -4z m1010 -16 c0 -5 -5 -10 -11 -10 -5 0 -7 5 -4 10 3 6 8 10 11 10 2 0 4
-4 4 -10z m-1083 -6 c-3 -3 -12 -4 -19 -1 -8 3 -5 6 6 6 11 1 17 -2 13 -5z
m-62 -14 c-27 -12 -35 -12 -35 0 0 6 12 10 28 9 24 0 25 -1 7 -9z m-55 -10 c0
-5 -5 -10 -11 -10 -5 0 -7 5 -4 10 3 6 8 10 11 10 2 0 4 -4 4 -10z m1195 0 c3
-5 1 -10 -4 -10 -6 0 -11 5 -11 10 0 6 2 10 4 10 3 0 8 -4 11 -10z m-95 -51
c0 -21 -5 -39 -10 -39 -16 0 -24 30 -11 43 16 16 14 27 -6 27 -15 0 -16 2 -3
9 22 15 30 4 30 -40z m433 -13 c21 -5 22 -6 2 -20 -11 -9 -16 -16 -11 -16 5 0
4 -6 -2 -13 -6 -7 -14 -32 -18 -55 -5 -33 -3 -43 10 -48 18 -7 49 13 40 27 -7
13 15 51 27 44 5 -4 10 4 10 17 1 16 3 18 6 6 2 -10 10 -15 19 -11 22 8 16 -7
-11 -29 -15 -11 -24 -28 -22 -40 2 -18 -5 -23 -37 -30 -22 -5 -49 -16 -59 -26
-19 -16 -19 -16 -14 3 3 11 9 38 13 60 4 22 13 57 20 78 11 31 11 37 -1 37 -7
0 -19 -15 -25 -34 -6 -19 -18 -37 -27 -40 -8 -4 -13 -13 -9 -21 3 -8 1 -15 -4
-15 -5 0 -12 -10 -15 -22 -14 -45 -33 -67 -55 -61 -17 4 -20 12 -18 36 2 23
14 38 47 61 24 17 49 40 55 51 6 11 19 32 29 48 11 15 17 34 14 41 -3 8 -3 17
1 21 4 4 8 -4 10 -18 2 -16 11 -27 25 -31z m-1503 34 c0 -5 -5 -10 -11 -10 -5
0 -7 5 -4 10 3 6 8 10 11 10 2 0 4 -4 4 -10z m640 0 c0 -5 -4 -10 -10 -10 -5
0 -10 5 -10 10 0 6 5 10 10 10 6 0 10 -4 10 -10z m516 -26 c-3 -7 -1 -16 4
-19 5 -3 2 -15 -8 -26 -9 -11 -18 -24 -18 -29 -1 -6 -2 -14 -3 -20 -2 -15 -31
0 -31 17 0 8 5 11 10 8 6 -3 10 -1 10 4 0 6 -6 11 -12 11 -8 1 -6 6 5 14 12
10 15 16 7 21 -8 5 -6 13 7 25 20 19 37 16 29 -6z m-1193 -4 c3 -11 2 -20 -2
-20 -3 0 -12 9 -19 20 -10 16 -10 20 2 20 7 0 16 -9 19 -20z m387 0 c0 -5 -6
-10 -14 -10 -8 0 -18 5 -21 10 -3 6 3 10 14 10 12 0 21 -4 21 -10z m35 -10 c3
-5 2 -10 -4 -10 -5 0 -13 5 -16 10 -3 6 -2 10 4 10 5 0 13 -4 16 -10z m1021
-17 c-10 -10 -19 5 -10 18 6 11 8 11 12 0 2 -7 1 -15 -2 -18z m-1398 -14 c-3
-8 -7 -3 -11 10 -4 17 -3 21 5 13 5 -5 8 -16 6 -23z m1002 17 c0 -19 -32 -30
-41 -14 -6 9 -1 15 14 20 12 3 23 6 25 7 1 1 2 -5 2 -13z m-1845 -14 c-3 -3
-11 0 -18 7 -9 10 -8 11 6 5 10 -3 15 -9 12 -12z m1475 8 c0 -5 -5 -10 -11
-10 -5 0 -7 5 -4 10 3 6 8 10 11 10 2 0 4 -4 4 -10z m65 -6 c-36 -16 -55 -17
-55 -5 0 13 19 19 55 18 l30 0 -30 -13z m-735 -8 c0 -15 -29 -30 -39 -20 -3 3
3 12 13 20 24 17 26 17 26 0z m628 -1 c10 -10 -20 -25 -49 -25 -24 0 -45 21
-33 33 6 6 74 0 82 -8z m1042 -6 c0 -6 -4 -7 -10 -4 -5 3 -10 11 -10 16 0 6 5
7 10 4 6 -3 10 -11 10 -16z m-305 2 c3 -5 1 -12 -5 -16 -5 -3 -10 -14 -10 -24
0 -29 -23 -41 -63 -34 -30 4 -35 8 -26 19 6 8 18 14 25 14 8 0 14 7 14 15 0
25 52 46 65 26z m62 -13 c-3 -8 -6 -5 -6 6 -1 11 2 17 5 13 3 -3 4 -12 1 -19z
m-743 -27 c3 -5 -1 -11 -9 -15 -9 -3 -15 0 -15 9 0 16 16 20 24 6z m-564 -10
c0 -10 -24 -21 -46 -21 -8 0 -14 4 -14 9 0 8 10 12 53 20 4 0 7 -3 7 -8z m676
-17 c21 -21 22 -27 10 -39 -15 -16 -27 -10 -20 9 3 7 -2 19 -11 26 -15 13 -20
30 -9 30 4 0 17 -12 30 -26z m231 6 c-3 -11 0 -20 6 -20 6 0 2 -7 -9 -15 -11
-8 -14 -15 -6 -15 6 0 12 -7 12 -16 0 -8 -3 -13 -7 -11 -5 3 -9 -20 -10 -51
-3 -103 -6 -117 -31 -120 -12 -2 -22 1 -22 7 0 6 7 11 15 11 8 0 15 5 15 10 0
6 -4 10 -10 10 -5 0 -10 5 -10 10 0 6 8 10 18 10 16 1 16 1 0 11 -22 12 -24
39 -3 39 8 0 15 5 15 10 0 6 -7 10 -15 10 -14 0 -14 3 -1 23 8 13 11 30 7 41
-8 22 14 76 31 76 6 0 8 -9 5 -20z m-1827 0 c0 -5 -7 -10 -16 -10 -8 0 -12 5
-9 10 3 6 10 10 16 10 5 0 9 -4 9 -10z m1180 -8 c0 -13 -12 -22 -22 -16 -10 6
-1 24 13 24 5 0 9 -4 9 -8z m37 2 c-3 -3 -12 -4 -19 -1 -8 3 -5 6 6 6 11 1 17
-2 13 -5z m113 -4 c0 -5 -4 -10 -10 -10 -5 0 -10 5 -10 10 0 6 5 10 10 10 6 0
10 -4 10 -10z m117 -3 c6 -4 23 -3 38 3 33 13 38 13 30 0 -3 -5 -15 -10 -26
-10 -10 0 -19 -5 -19 -10 0 -6 -10 -8 -22 -5 -13 3 -41 7 -63 9 -49 5 -47 4
-41 15 6 10 86 8 103 -2z m-213 -28 c-3 -5 -13 -9 -22 -10 -12 0 -11 -3 6 -9
12 -5 22 -14 22 -20 0 -12 -5 -13 -28 -1 -9 6 -30 13 -46 16 l-29 6 29 18 c28
17 79 17 68 0z m716 11 c13 -8 13 -10 -2 -10 -13 0 -18 -11 -20 -52 -2 -28 -8
-53 -15 -55 -7 -3 -11 4 -10 16 1 12 4 21 8 21 3 0 5 20 4 45 -1 45 7 53 35
35z m-640 -10 c-19 -13 -30 -13 -30 0 0 6 10 10 23 10 18 0 19 -2 7 -10z
m-216 -15 c-7 -17 -7 -17 -28 -9 -24 9 -19 24 9 24 18 0 23 -4 19 -15z m316 5
c0 -5 -4 -10 -10 -10 -5 0 -10 5 -10 10 0 6 5 10 10 10 6 0 10 -4 10 -10z
m-30 -18 c0 -7 5 -10 10 -7 6 3 10 1 10 -4 0 -6 -9 -11 -19 -11 -10 0 -21 -7
-25 -15 -3 -8 -12 -15 -20 -15 -8 0 -18 -5 -22 -11 -4 -7 0 -9 12 -6 36 10
139 19 131 11 -4 -4 -31 -11 -60 -16 -28 -4 -63 -10 -77 -13 -17 -3 -30 3 -42
18 -15 19 -18 19 -18 5 0 -10 -13 -24 -30 -33 -34 -18 -40 -18 -40 -5 0 6 9
10 20 10 11 0 20 5 20 11 0 6 -9 9 -20 6 -28 -7 -35 10 -10 23 13 7 20 7 20 0
0 -21 29 -9 50 20 12 17 28 30 36 30 8 0 14 4 14 10 0 5 13 8 30 7 17 -1 30
-8 30 -15z m93 -7 c-5 -16 -16 -19 -26 -9 -7 8 16 33 25 28 4 -3 5 -11 1 -19z
m790 -15 c-5 -25 -3 -29 11 -24 17 7 22 -11 6 -21 -6 -4 -7 -11 -4 -17 4 -7 2
-8 -5 -4 -6 4 -9 12 -6 17 4 5 -1 12 -9 15 -16 6 -22 45 -9 57 15 15 22 5 16
-23z m-1388 10 c3 -5 1 -10 -4 -10 -6 0 -11 5 -11 10 0 6 2 10 4 10 3 0 8 -4
11 -10z m63 -28 c4 -14 -34 -16 -42 -3 -6 10 13 21 28 17 6 -1 12 -8 14 -14z
m1134 -24 c-6 -6 -15 -8 -19 -4 -4 4 -1 11 7 16 19 12 27 3 12 -12z m-902 -13
c0 -8 -4 -15 -9 -15 -13 0 -22 16 -14 24 11 11 23 6 23 -9z m1010 -16 c7 -24
5 -25 -24 -24 -17 2 -38 -1 -47 -6 -11 -6 -21 -4 -29 6 -10 12 -7 15 14 21 14
3 31 12 37 20 18 21 41 13 49 -17z m-137 -4 c-3 -9 -8 -14 -10 -11 -3 3 -2 9
2 15 9 16 15 13 8 -4z m-1108 -5 c3 -5 1 -10 -4 -10 -6 0 -11 5 -11 10 0 6 2
10 4 10 3 0 8 -4 11 -10z m473 -8 c3 -9 -2 -13 -14 -10 -9 1 -19 9 -22 16 -3
9 2 13 14 10 9 -1 19 -9 22 -16z m-243 -11 c-7 -23 10 -38 19 -16 3 8 15 15
26 15 12 0 30 5 40 10 11 6 21 6 25 1 3 -6 17 -6 35 -1 17 5 30 5 30 0 0 -11
-35 -31 -42 -24 -3 2 -29 -3 -59 -11 l-54 -15 60 5 c33 2 72 8 88 11 17 4 27
2 27 -5 0 -6 -9 -11 -20 -11 -11 0 -20 -4 -20 -10 0 -16 36 -12 50 5 8 10 17
12 23 6 13 -13 -1 -31 -25 -31 -14 0 -18 -5 -14 -15 18 -45 18 -49 -1 -25 -18
21 -23 22 -37 11 -9 -7 -16 -20 -16 -28 0 -7 -7 -16 -15 -19 -25 -10 -17 -24
13 -24 18 0 23 -3 14 -9 -8 -4 -13 -12 -12 -16 1 -4 -15 -17 -36 -30 -34 -21
-36 -23 -18 -33 17 -10 16 -11 -9 -12 -16 0 -26 -4 -23 -9 12 -19 -44 -22 -68
-4 -20 15 -23 24 -19 61 5 50 -10 76 -40 66 -20 -6 -37 9 -37 34 0 10 4 10 21
0 17 -11 22 -10 30 5 6 9 15 14 22 10 6 -3 0 8 -13 27 -13 18 -31 35 -41 37
-18 5 -20 34 -2 40 6 2 18 -3 26 -12 9 -8 19 -15 23 -15 4 0 4 3 1 7 -9 9 23
43 40 43 10 0 12 -6 8 -19z m745 -11 c0 -11 -5 -20 -10 -20 -6 0 -3 -11 5 -24
13 -19 14 -29 6 -45 -6 -11 -11 -29 -11 -40 0 -15 -4 -19 -17 -14 -16 6 -16 5
-5 -10 14 -16 9 -37 -9 -37 -13 0 -11 42 4 65 7 11 12 31 10 45 -3 37 7 100
18 100 5 0 9 -9 9 -20z m105 0 c3 -5 1 -10 -4 -10 -6 0 -11 5 -11 10 0 6 2 10
4 10 3 0 8 -4 11 -10z m-15 -29 c0 -5 -7 -11 -15 -15 -15 -5 -20 5 -8 17 9 10
23 9 23 -2z m183 -19 c-9 -22 -23 -32 -51 -32 -19 0 -21 3 -11 18 12 19 49 41
61 35 4 -2 4 -11 1 -21z m-1197 -14 c-9 -5 -24 -7 -34 -5 -14 3 -12 6 8 14 29
12 50 5 26 -9z m497 6 c-4 -12 -8 -12 -13 -3 -5 7 -18 9 -34 5 -15 -4 -26 -2
-26 4 0 5 18 10 40 10 32 0 38 -3 33 -16z m622 6 c3 -5 1 -10 -4 -10 -6 0 -11
5 -11 10 0 6 2 10 4 10 3 0 8 -4 11 -10z m-1020 -10 c3 -6 -1 -13 -10 -16 -19
-8 -30 0 -20 15 8 14 22 14 30 1z m995 4 c0 -13 -45 -41 -58 -36 -11 4 -9 10
9 23 23 18 49 25 49 13z m-283 -54 c-1 -22 -5 -40 -9 -40 -5 0 -8 -9 -8 -20 0
-18 -19 -30 -21 -12 -8 71 -7 83 7 97 25 24 34 18 31 -25z m206 -1 c4 -16 3
-18 -9 -8 -16 13 -19 29 -5 29 5 0 11 -9 14 -21z m-1608 1 c-27 -12 -35 -12
-35 0 0 6 12 10 28 9 24 0 25 -1 7 -9z m85 -15 c0 -14 -4 -25 -10 -25 -5 0
-10 11 -10 25 0 14 5 25 10 25 6 0 10 -11 10 -25z m1000 -5 c0 -5 -5 -10 -11
-10 -5 0 -7 5 -4 10 3 6 8 10 11 10 2 0 4 -4 4 -10z m-1070 -10 c0 -5 -4 -10
-10 -10 -5 0 -10 5 -10 10 0 6 5 10 10 10 6 0 10 -4 10 -10z m1573 -7 c-7 -2
-13 -10 -13 -16 -1 -7 -10 -30 -21 -52 l-20 -40 6 40 c10 65 15 75 38 74 12 0
16 -3 10 -6z m-915 -44 c-17 -11 -28 -2 -28 23 0 21 1 21 20 3 15 -14 17 -21
8 -26z m1085 -31 c-9 -40 -16 -93 -16 -118 0 -25 -2 -36 -5 -25 -2 11 -9 26
-15 33 -8 10 -7 16 3 22 12 7 12 13 0 34 -10 20 -11 32 -2 50 6 13 8 27 4 30
-9 9 -53 -45 -46 -56 4 -6 -4 -5 -16 2 -12 6 -24 9 -28 6 -3 -3 -1 -6 5 -6 6
0 14 -7 17 -16 3 -8 2 -12 -3 -9 -5 3 -12 1 -16 -5 -9 -15 -27 -12 -20 3 4 6
-3 1 -14 -13 l-21 -25 0 26 c0 17 10 33 30 47 17 13 30 29 30 37 0 8 6 15 14
15 7 0 19 7 26 15 9 11 17 12 31 4 12 -6 19 -6 19 0 0 5 8 12 18 14 9 3 18 5
18 6 1 0 -5 -32 -13 -71z m-1978 52 c3 -5 1 -10 -4 -10 -6 0 -11 5 -11 10 0 6
2 10 4 10 3 0 8 -4 11 -10z m750 0 c-3 -5 -10 -10 -16 -10 -5 0 -9 5 -9 10 0
6 7 10 16 10 8 0 12 -4 9 -10z m-142 -27 c-7 -2 -19 -2 -25 0 -7 3 -2 5 12 5
14 0 19 -2 13 -5z m152 -13 c-3 -5 -1 -11 5 -15 12 -7 13 -25 2 -25 -5 0 -17
6 -27 14 -22 16 -14 49 10 40 8 -3 13 -10 10 -14z m945 -10 c0 -21 -15 -27
-25 -10 -7 12 2 30 16 30 5 0 9 -9 9 -20z m-825 0 c3 -5 -1 -10 -9 -10 -9 0
-16 5 -16 10 0 6 4 10 9 10 6 0 13 -4 16 -10z m-415 -30 c0 -5 -4 -10 -10 -10
-5 0 -10 5 -10 10 0 6 5 10 10 10 6 0 10 -4 10 -10z m40 0 c12 -8 11 -10 -7
-10 -13 0 -23 5 -23 10 0 13 11 13 30 0z m-200 -15 c7 -8 8 -15 2 -15 -5 0
-15 7 -22 15 -7 8 -8 15 -2 15 5 0 15 -7 22 -15z m457 -11 c-3 -3 -12 -4 -19
-1 -8 3 -5 6 6 6 11 1 17 -2 13 -5z m311 -25 c-7 -13 -19 -29 -25 -37 -17 -18
-16 -33 0 -26 10 4 14 -9 14 -53 0 -32 3 -68 7 -80 6 -19 4 -23 -13 -23 -12 0
-21 7 -21 15 0 7 -8 19 -17 24 -10 6 -13 11 -7 11 7 0 9 11 6 25 -3 19 -11 25
-30 25 l-25 0 27 25 c30 28 31 33 11 55 -14 16 -11 19 32 42 27 14 49 24 51
22 2 -1 -3 -12 -10 -25z m-813 12 c-3 -5 -1 -12 5 -16 5 -3 10 -1 10 4 0 6 5
11 10 11 6 0 10 -6 10 -14 0 -8 5 -16 11 -18 6 -2 7 -11 3 -22 -7 -18 -8 -17
-17 5 -9 22 -10 23 -15 4 -2 -11 -8 -23 -13 -26 -6 -3 -4 -17 4 -32 8 -15 16
-25 19 -22 2 2 19 -9 37 -25 18 -17 29 -30 24 -30 -4 0 0 -5 10 -11 9 -6 26
-7 37 -4 13 4 20 2 20 -7 0 -10 11 -12 39 -10 31 3 42 -1 58 -21 11 -14 30
-27 44 -29 13 -1 22 -7 21 -12 -2 -5 2 -13 10 -18 10 -7 9 -11 -7 -21 -11 -6
-24 -12 -30 -12 -5 0 -14 -3 -20 -7 -5 -3 -34 -13 -64 -22 -53 -15 -53 -15
-48 6 6 20 -12 48 -31 48 -7 0 -16 14 -40 63 -2 4 7 7 20 8 17 0 12 5 -19 16
-23 8 -42 18 -42 21 3 18 -2 35 -7 29 -3 -3 -18 5 -32 18 -14 13 -23 27 -20
30 4 4 -1 15 -10 26 -16 18 -25 75 -15 92 2 4 13 7 24 7 11 0 18 -4 14 -9z
m1605 -34 c0 -7 -12 -26 -27 -42 -42 -45 -71 -90 -86 -136 l-14 -42 -5 32 c-3
19 1 36 9 42 7 6 13 17 13 24 0 7 20 33 43 58 24 25 47 52 50 61 8 19 17 21
17 3z m37 -57 c-22 -40 -42 -55 -30 -22 5 15 42 62 49 62 1 0 -7 -18 -19 -40z
m-1312 -45 c0 -66 -8 -86 -33 -84 -15 1 -15 2 1 6 24 6 19 42 -8 57 -11 6 -22
12 -24 13 -2 2 1 9 8 17 9 11 9 15 -1 20 -7 3 -1 3 15 0 37 -8 34 3 -5 20
l-33 13 40 -1 40 -1 0 -60z m25 -11 c0 -8 -5 -12 -10 -9 -6 4 -8 11 -5 16 9
14 15 11 15 -7z m-480 -34 c0 -5 -2 -10 -4 -10 -3 0 -8 5 -11 10 -3 6 -1 10 4
10 6 0 11 -4 11 -10z m500 -24 c0 -11 -19 -15 -25 -6 -3 5 1 10 9 10 9 0 16
-2 16 -4z m430 -56 c0 -21 -15 -27 -25 -10 -7 12 2 30 16 30 5 0 9 -9 9 -20z
m515 -114 c-11 -8 -24 -12 -30 -10 -6 3 -15 -9 -22 -25 -9 -26 -15 -29 -42
-26 -17 2 -36 7 -41 10 -6 3 -7 -1 -4 -9 7 -17 -11 -22 -21 -6 -3 6 -24 2 -53
-9 -33 -14 -46 -24 -45 -37 1 -10 -5 -23 -13 -29 -9 -6 -14 -17 -12 -25 2 -8
-3 -14 -10 -12 -7 1 -24 -9 -38 -22 -15 -13 -43 -29 -64 -36 -22 -7 -40 -21
-43 -31 -4 -13 -14 -19 -36 -19 -17 0 -31 5 -31 10 0 6 3 10 8 10 4 0 43 34
87 76 44 42 97 89 118 104 l38 29 -35 6 c-30 6 -33 10 -24 24 8 14 20 16 73
10 34 -3 68 -10 75 -14 8 -5 11 -4 6 3 -6 10 48 25 129 35 17 2 34 5 39 6 6 0
1 -5 -9 -13z m-1196 -22 c2 -2 2 -7 -2 -10 -8 -9 -47 6 -47 17 0 9 37 3 49 -7z
m861 -27 c0 -1 -28 -24 -63 -50 -35 -27 -112 -97 -170 -158 -59 -60 -112 -109
-117 -109 -6 0 -10 -6 -10 -13 0 -13 -97 -77 -118 -77 -7 0 -12 -5 -12 -11 0
-5 -24 -21 -52 -35 -29 -13 -66 -33 -83 -43 -16 -10 -33 -16 -38 -14 -4 2 -20
-5 -36 -17 -27 -19 -30 -19 -34 -3 -3 13 -5 12 -6 -5 -1 -18 -5 -22 -20 -17
-11 3 -35 -3 -55 -15 -44 -24 -46 -24 -46 -5 0 8 12 18 28 21 15 4 41 16 57
28 17 12 32 21 35 22 15 1 113 54 162 86 31 21 61 38 67 38 5 0 54 30 108 66
112 76 232 191 259 249 17 37 24 41 74 52 64 13 70 14 70 10z m-1150 -541 c0
-3 -4 -8 -10 -11 -5 -3 -10 -1 -10 4 0 6 5 11 10 11 6 0 10 -2 10 -4z m-170
-393 c0 -5 -9 -19 -20 -33 l-20 -25 0 27 c0 23 10 35 33 37 4 1 7 -2 7 -6z"/>
<path d="M8642 2568 c2 -15 11 -24 26 -26 24 -4 30 16 10 36 -20 20 -40 14
-36 -10z"/>
<path d="M8710 2581 c0 -6 5 -13 10 -16 6 -3 10 1 10 9 0 9 -4 16 -10 16 -5 0
-10 -4 -10 -9z"/>
<path d="M8330 2210 c0 -5 7 -10 15 -10 8 0 15 5 15 10 0 6 -7 10 -15 10 -8 0
-15 -4 -15 -10z"/>
<path d="M8288 2033 c7 -3 16 -2 19 1 4 3 -2 6 -13 5 -11 0 -14 -3 -6 -6z"/>
<path d="M8190 2020 c-13 -9 -13 -10 0 -10 8 0 22 5 30 10 13 9 13 10 0 10 -8
0 -22 -5 -30 -10z"/>
<path d="M8172 1983 c-23 -5 -52 -43 -32 -43 5 0 10 4 10 9 0 5 11 11 25 13
14 3 25 1 25 -3 0 -18 16 -8 17 11 2 20 -2 21 -45 13z"/>
<path d="M8155 1911 c-3 -5 -1 -12 5 -16 12 -7 30 2 30 16 0 12 -27 12 -35 0z"/>
<path d="M7635 1480 c3 -5 8 -10 11 -10 2 0 4 5 4 10 0 6 -5 10 -11 10 -5 0
-7 -4 -4 -10z"/>
<path d="M7879 3707 c-18 -25 -37 -78 -22 -62 6 6 20 27 32 48 24 40 17 51
-10 14z"/>
<path d="M7340 3705 c-19 -22 -10 -23 30 -3 33 17 34 18 9 18 -15 0 -32 -7
-39 -15z"/>
<path d="M6310 3680 c-11 -7 -8 -10 16 -10 16 0 35 -5 42 -12 6 -6 15 -9 19
-5 18 18 -52 42 -77 27z"/>
<path d="M6242 3618 c2 -6 10 -14 16 -16 7 -2 10 2 6 12 -7 18 -28 22 -22 4z"/>
<path d="M6073 3575 c-18 -19 -33 -42 -33 -52 0 -15 2 -15 15 3 8 10 15 14 15
7 0 -16 -50 -74 -60 -68 -4 2 -10 -8 -13 -24 -9 -43 -87 -114 -87 -79 0 6 -3
8 -7 5 -3 -4 -13 -1 -21 6 -10 8 -45 11 -98 10 -83 -1 -83 -1 -74 22 6 16 4
29 -6 41 -10 13 -13 14 -12 5 2 -9 -8 -17 -26 -20 -24 -5 -31 -13 -41 -46 -9
-34 -12 -37 -19 -20 -7 19 -8 19 -21 2 -10 -13 -14 -15 -18 -5 -3 10 -7 10
-17 1 -10 -9 -5 -23 23 -65 51 -73 104 -134 113 -126 3 4 7 20 8 35 7 77 57
153 101 153 33 0 35 -8 14 -62 -20 -52 -28 -123 -14 -136 4 -4 10 -1 12 6 3 6
10 12 18 12 7 0 29 15 50 34 20 19 49 40 64 46 14 6 46 36 71 66 24 30 49 54
56 54 21 0 36 -29 32 -64 -4 -40 6 -38 28 7 9 18 30 46 46 63 l30 32 -61 7
c-40 5 -61 11 -61 20 0 7 13 38 29 69 17 31 27 56 23 56 -3 0 -1 5 6 12 7 7
12 16 12 22 0 5 -9 0 -20 -12 -26 -27 -33 -28 -25 -2 8 26 6 25 -32 -15z"/>
<path d="M9522 3540 c0 -14 2 -19 5 -12 2 6 2 18 0 25 -3 6 -5 1 -5 -13z"/>
<path d="M5814 3537 c-3 -9 -1 -24 4 -33 9 -16 10 -15 17 5 8 27 -11 54 -21
28z"/>
<path d="M7931 3454 c0 -11 3 -14 6 -6 3 7 2 16 -1 19 -3 4 -6 -2 -5 -13z"/>
<path d="M9190 3388 c0 -19 -48 -111 -63 -120 -7 -4 4 -8 26 -8 26 0 37 -4 37
-15 0 -8 3 -15 8 -15 12 0 14 157 2 165 -5 3 -10 0 -10 -7z"/>
<path d="M9350 3239 c-13 -12 -24 -29 -23 -40 0 -10 1 -30 2 -44 1 -29 25 -33
55 -10 19 15 32 85 15 85 -5 0 -9 7 -9 15 0 20 -10 18 -40 -6z"/>
<path d="M7460 3013 c0 -20 3 -24 9 -14 5 7 14 10 20 6 14 -8 43 13 35 26 -3
5 -18 9 -35 9 -25 0 -29 -4 -29 -27z"/>
<path d="M5278 2983 c7 -3 16 -2 19 1 4 3 -2 6 -13 5 -11 0 -14 -3 -6 -6z"/>
<path d="M7501 2793 c-18 -20 -6 -29 14 -10 8 9 12 18 8 20 -5 3 -14 -2 -22
-10z"/>
<path d="M7532 2788 c-14 -14 -16 -38 -3 -38 5 0 16 11 25 25 13 19 13 25 3
25 -7 0 -18 -5 -25 -12z"/>
<path d="M7583 2771 c-10 -16 -9 -20 4 -25 10 -4 14 -2 10 8 -3 7 0 19 6 25 6
6 7 11 1 11 -5 0 -15 -9 -21 -19z"/>
<path d="M7230 2770 c0 -5 7 -10 16 -10 8 0 12 5 9 10 -3 6 -10 10 -16 10 -5
0 -9 -4 -9 -10z"/>
<path d="M6945 2760 c-3 -5 -15 -10 -25 -10 -13 0 -22 -9 -26 -25 -4 -15 -12
-24 -21 -23 -21 4 -27 -38 -7 -46 11 -4 15 -2 11 8 -3 8 1 17 9 20 9 3 12 1 9
-4 -3 -6 -2 -10 3 -10 14 0 23 28 11 36 -19 11 29 42 58 36 25 -5 27 -4 14 11
-15 19 -27 21 -36 7z"/>
<path d="M7410 2748 c-16 -7 -20 -12 -12 -15 8 -3 21 2 30 11 19 18 17 19 -18
4z"/>
<path d="M7670 2741 c0 -10 19 -25 25 -20 1 2 -3 10 -11 17 -8 7 -14 8 -14 3z"/>
<path d="M7335 2730 c3 -5 8 -10 11 -10 2 0 4 5 4 10 0 6 -5 10 -11 10 -5 0
-7 -4 -4 -10z"/>
<path d="M7525 2720 c-3 -5 -1 -10 4 -10 6 0 11 5 11 10 0 6 -2 10 -4 10 -3 0
-8 -4 -11 -10z"/>
<path d="M7595 2710 c24 -11 51 -13 41 -3 -4 4 -19 8 -34 10 -23 2 -24 1 -7
-7z"/>
<path d="M7438 2693 c7 -3 16 -2 19 1 4 3 -2 6 -13 5 -11 0 -14 -3 -6 -6z"/>
<path d="M7515 2650 c3 -5 8 -10 11 -10 2 0 4 5 4 10 0 6 -5 10 -11 10 -5 0
-7 -4 -4 -10z"/>
<path d="M7636 2614 c-17 -17 -21 -34 -8 -34 4 0 13 5 20 12 8 8 15 8 27 -2
20 -17 21 5 1 26 -18 18 -21 18 -40 -2z"/>
<path d="M7250 2611 c0 -10 29 -36 34 -30 1 2 -6 12 -16 22 -10 9 -18 13 -18
8z"/>
<path d="M7568 2583 c7 -3 16 -2 19 1 4 3 -2 6 -13 5 -11 0 -14 -3 -6 -6z"/>
<path d="M7608 2563 c7 -3 16 -2 19 1 4 3 -2 6 -13 5 -11 0 -14 -3 -6 -6z"/>
<path d="M7605 2540 c-4 -6 5 -10 20 -10 15 0 24 4 20 10 -3 6 -12 10 -20 10
-8 0 -17 -4 -20 -10z"/>
<path d="M7290 2525 c0 -12 5 -26 12 -33 7 -7 8 -12 4 -12 -5 0 -3 -7 4 -15 7
-8 16 -15 21 -15 18 0 8 40 -16 67 -22 26 -24 26 -25 8z"/>
<path d="M9270 2526 c0 -2 7 -6 15 -10 8 -3 15 -1 15 4 0 6 -7 10 -15 10 -8 0
-15 -2 -15 -4z"/>
<path d="M7560 2480 c0 -5 5 -10 11 -10 5 0 7 5 4 10 -3 6 -8 10 -11 10 -2 0
-4 -4 -4 -10z"/>
<path d="M7470 2431 c0 -4 11 -6 25 -3 14 2 25 6 25 8 0 2 -11 4 -25 4 -14 0
-25 -4 -25 -9z"/>
<path d="M7595 2400 c-3 -5 1 -10 9 -10 9 0 16 5 16 10 0 6 -4 10 -9 10 -6 0
-13 -4 -16 -10z"/>
<path d="M7120 2379 c0 -5 5 -7 10 -4 6 3 10 8 10 11 0 2 -4 4 -10 4 -5 0 -10
-5 -10 -11z"/>
<path d="M7640 2380 c0 -6 7 -10 15 -10 8 0 15 2 15 4 0 2 -7 6 -15 10 -8 3
-15 1 -15 -4z"/>
<path d="M6810 2357 c0 -17 49 -72 57 -64 7 8 -29 69 -45 75 -6 2 -12 -3 -12
-11z"/>
<path d="M7760 2203 c0 -29 25 -30 60 -3 14 11 23 20 20 21 -3 1 -22 2 -42 3
-34 3 -38 0 -38 -21z"/>
<path d="M7580 2210 c0 -5 5 -10 11 -10 5 0 7 5 4 10 -3 6 -8 10 -11 10 -2 0
-4 -4 -4 -10z"/>
<path d="M7536 2185 c-11 -9 -14 -15 -7 -15 7 0 19 7 27 15 20 19 5 19 -20 0z"/>
<path d="M7685 2180 c-4 -6 3 -10 14 -10 25 0 27 6 6 13 -8 4 -17 2 -20 -3z"/>
<path d="M7768 2143 c6 -2 18 -2 25 0 6 3 1 5 -13 5 -14 0 -19 -2 -12 -5z"/>
<path d="M7726 2121 c-3 -5 0 -11 8 -14 8 -3 17 1 20 9 6 15 -19 20 -28 5z"/>
<path d="M7790 2122 c0 -5 9 -17 19 -26 14 -13 21 -14 27 -5 4 7 -1 18 -11 26
-21 15 -35 17 -35 5z"/>
<path d="M7685 2110 c-3 -5 -1 -10 4 -10 6 0 11 5 11 10 0 6 -2 10 -4 10 -3 0
-8 -4 -11 -10z"/>
<path d="M7590 2095 c0 -21 18 -37 36 -33 18 5 18 5 -1 13 -11 5 -23 13 -27
19 -5 7 -8 7 -8 1z"/>
<path d="M7705 2010 c3 -5 8 -10 11 -10 2 0 4 5 4 10 0 6 -5 10 -11 10 -5 0
-7 -4 -4 -10z"/>
<path d="M7730 2010 c0 -5 5 -10 10 -10 6 0 10 5 10 10 0 6 -4 10 -10 10 -5 0
-10 -4 -10 -10z"/>
<path d="M7585 1999 c-11 -17 1 -21 15 -4 8 9 8 15 2 15 -6 0 -14 -5 -17 -11z"/>
<path d="M7700 1961 c-12 -23 -13 -31 -2 -31 4 0 12 11 19 25 13 29 -1 34 -17
6z"/>
<path d="M6774 1911 c8 -50 22 -81 37 -81 7 0 9 10 4 28 -4 15 -9 36 -11 46
-2 11 -11 27 -20 35 -15 15 -16 13 -10 -28z"/>
<path d="M7610 1920 c0 -5 5 -10 10 -10 6 0 10 5 10 10 0 6 -4 10 -10 10 -5 0
-10 -4 -10 -10z"/>
<path d="M6830 1785 c13 -14 27 -25 32 -25 15 0 -26 49 -41 50 -10 0 -7 -8 9
-25z"/>
<path d="M6938 1624 c-11 -10 3 -34 19 -34 8 0 13 7 11 17 -3 18 -20 27 -30
17z"/>
<path d="M6986 1581 c-12 -19 4 -31 44 -31 21 0 42 -5 45 -10 4 -6 -16 -32
-43 -59 -40 -39 -49 -54 -45 -74 l5 -25 68 34 c52 27 81 35 126 36 56 1 136
27 149 48 11 18 -55 40 -142 49 -49 5 -91 7 -95 4 -5 -2 -8 2 -8 9 0 7 -10 14
-22 15 -13 1 -35 4 -49 8 -16 4 -29 2 -33 -4z"/>
<path d="M8958 1470 c-10 -10 -13 -22 -8 -25 9 -6 13 -1 23 28 8 22 5 22 -15
-3z"/>
<path d="M6773 1320 c0 -30 2 -43 4 -27 2 15 2 39 0 55 -2 15 -4 2 -4 -28z"/>
<path d="M7517 1333 c-36 -25 -87 -112 -87 -146 0 -7 -5 -18 -12 -25 -9 -9 -6
-12 14 -12 25 0 78 40 78 58 0 6 18 32 40 58 67 82 46 124 -33 67z"/>
<path d="M7285 1150 c-3 -6 1 -7 9 -4 18 7 21 14 7 14 -6 0 -13 -4 -16 -10z"/>
<path d="M7233 1121 c-3 -12 -10 -21 -17 -20 -24 3 -36 -2 -36 -14 0 -15 -54
-67 -69 -67 -10 0 -46 -71 -43 -83 1 -5 -7 -6 -18 -2 -11 3 -29 3 -40 0 -16
-5 -18 -10 -10 -25 8 -15 17 -18 43 -13 17 3 33 10 35 14 2 4 9 6 17 3 7 -3
22 2 32 11 31 27 113 85 121 85 4 0 27 20 51 45 33 34 41 49 33 57 -9 9 -16 7
-30 -5 -24 -22 -30 -21 -34 5 -4 29 -28 35 -35 9z"/>
<path d="M9015 1130 c-3 -5 3 -10 14 -10 12 0 21 -5 21 -11 0 -7 -11 -9 -27
-6 -28 5 -93 -18 -93 -33 0 -12 38 -100 43 -100 3 0 28 11 58 23 52 23 52 24
24 31 -16 4 -37 13 -48 21 -19 13 -19 14 6 20 14 4 32 5 39 3 13 -5 48 27 48
44 0 9 -43 28 -65 28 -8 0 -17 -4 -20 -10z"/>
</g>
</svg>
